# xmcd
#
# Track frame offsets: 
#        150
#        16474
#        32966
#        51590
#        65211
#        82125
#        101079
#        121927
#        138451
#        153340
#        169750
#        184951
#        198929
#        213455
#        231472
#
# Disc length: 3297 seconds
#
# Revision: 0
# Processed by: cddbd v1.5.2PL0 Copyright (c) Steve Scherf et al.
# Submitted via: ExactAudioCopyFreeDBPlugin 1.0
#
DISCID=e60cdf0f
DTITLE=Mikel Knight - Mr. Howdy Dewdat
DYEAR=2013
DGENRE=Rap
TTITLE0=My Kinda Party
TTITLE1=Hillbilly Deluxe
TTITLE2=Get'cha Country On
TTITLE3=Backwoodz
TTITLE4=Wanted Dead or Alive
TTITLE5=Paradise City
TTITLE6=Wobble
TTITLE7=Let's Ride
TTITLE8=Hypnotized
TTITLE9=Pony
TTITLE10=Loud
TTITLE11=Johnny Cash
TTITLE12=Rodeo
TTITLE13=Simple Man
TTITLE14=Cowboy Tune Duke Boyz (Bonus Track)
EXTD=
EXTT0=
EXTT1=
EXTT2=
EXTT3=
EXTT4=
EXTT5=
EXTT6=
EXTT7=
EXTT8=
EXTT9=
EXTT10=
EXTT11=
EXTT12=
EXTT13=
EXTT14=
PLAYORDER=
